<?xml version="1.0" ?><!DOCTYPE svg  PUBLIC '-//W3C//DTD SVG 1.1//EN'  'http://www.w3.org/Graphics/SVG/1.1/DTD/svg11.dtd'><svg enable-background="new 0 0 64 64" height="64px" id="Layer_1" version="1.1" viewBox="0 0 64 64" width="64px" xml:space="preserve" xmlns="http://www.w3.org/2000/svg" xmlns:xlink="http://www.w3.org/1999/xlink"><g><path d="M45.014,4.868c-0.124,0-0.248,0.009-0.368,0.014c-0.024-0.001-0.037-0.005-0.061-0.006   c-1.56-0.046-2.066-0.677-2.066-0.677s-0.007,0.007-0.01,0.01c-2.531-2.548-6.015-4.125-9.87-4.125   c-5.553,0-10.345,3.272-12.62,8.005c-0.015,0.024-0.026,0.041-0.039,0.067c-0.505,0.938-1.227,0.979-1.574,0.936   c-0.066-0.01-0.127-0.029-0.193-0.037c0,0-0.008-0.002-0.008-0.002v0.001c-0.423-0.058-0.853-0.09-1.293-0.09   c-5.332,0-9.663,4.388-9.663,9.791c0,4.607,3.151,8.471,7.381,9.507l-0.003,0.009c0,0,0.039,0.003,0.093,0.015   c0.058,0.012,0.112,0.033,0.171,0.042c0.361,0.112,1.014,0.444,1.379,1.444c0,0,0,0,0,0.003l6.837,18.705   c0,0,0.577,1.752,2.511,1.752h12.571c1.71,0,2.414-1.087,2.674-1.674l0.133-0.362l0.004-0.003l0,0l6.885-18.832   c0,0,0.39-1.03,1.599-1.616c0.03-0.015,0.042-0.027,0.066-0.039c4.232-1.801,7.202-6.021,7.202-10.949   C56.751,10.196,51.503,4.868,45.014,4.868z M52.358,22.506c-0.036,0.036-0.079,0.094-0.133,0.168   c-0.251,0.329-0.532,0.657-0.85,0.98c-0.997,0.902-2.277,1.529-2.429,1.6c-0.39,0.165-0.831,0.325-1.29,0.453v0.001   c0,0-1.238,0.229-1.779,1.511l-1.19,2.833l-5.362,14.659l-0.626,1.997c-0.1,0.29-0.517,1.218-1.849,1.218h-9.573   c-1.198,0-1.627-0.909-1.724-1.157l-5.377-14.895l-1.882-4.689c0,0,0,0,0-0.003c-0.42-1.048-1.779-1.504-1.779-1.504l0.003-0.001   c-0.166-0.063-0.338-0.133-0.52-0.216l-0.006,0.005c0,0-0.094-0.042-0.255-0.128c-0.035-0.015-0.065-0.036-0.101-0.055   c-1.279-0.695-5.601-3.492-4.263-9.006c0.787-2.787,4.115-4.558,7.96-4.071c0.18,0.019,0.366,0.046,0.558,0.08   c0.054,0.01,0.109,0.023,0.163,0.033c0.089,0.018,0.183,0.043,0.273,0.063l0.009-0.004c0,0,1.305,0.333,1.81-0.754   c0.001-0.004,0.004-0.006,0.006-0.011c0.959-2.285,3.641-7.206,9.203-8.004c3.67-0.398,7.571,1.966,9.405,3.646   c0.033,0.033,0.939,0.86,2.359,0.763c0.006,0,0.01,0.001,0.013,0c2.537-0.2,7.752,0.391,10.652,7.835   C54.156,16.822,54.406,19.687,52.358,22.506z" fill="#fff"/><g><path d="M30.645,60.139c-0.199-1.866-1.877-3.221-3.742-3.023c-0.743,0.082-1.413,0.396-1.914,0.866    c-0.376,0.238-0.755,0.604-1.148,1.09c-1.236,1.493-3.157,4.204-5.888,3.292c-0.012-0.002-0.015,0.008-0.027,0.005    c-0.764-0.157-0.224,0.323-0.051,0.467c1.607,1.167,3.459,1.717,5.566-0.049c0.011-0.008,0.017-0.006,0.029-0.014    c0.634-0.444,1.072-0.204,1.293-0.001c0.042,0.048,0.084,0.095,0.13,0.141c0.021,0.028,0.036,0.048,0.036,0.048l-0.003-0.022    c0.698,0.669,1.668,1.05,2.7,0.941C29.488,63.678,30.841,62.001,30.645,60.139z" fill="#fff"/><path d="M45.978,62.475v-0.004c-2.55,0.583-4.359-1.97-5.541-3.399c-0.393-0.486-0.771-0.852-1.147-1.09    c-0.502-0.47-1.17-0.784-1.913-0.866c-1.864-0.197-3.544,1.157-3.74,3.023c-0.202,1.862,1.157,3.539,3.019,3.74    c1.055,0.109,2.051-0.283,2.749-0.982l0.006,0.005c0,0,0.006-0.011,0.013-0.017c0.03-0.032,0.054-0.066,0.084-0.099    c0.173-0.169,0.607-0.409,1.46,0.115c0.023,0.015,0.026,0.012,0.048,0.023c1.864,1.455,3.522,1.117,4.988,0.182    C47.071,62.294,45.978,62.475,45.978,62.475z" fill="#fff"/></g></g></svg>